<svg xmlns="http://www.w3.org/2000/svg" xmlns:xlink="http://www.w3.org/1999/xlink" viewBox="0 0 374 369.66"><defs><style>.cls-1{fill:none;}.cls-2{isolation:isolate;}.cls-3{fill:#c9ced6;}.cls-35,.cls-4{fill:#d8dee8;}.cls-5{clip-path:url(#clip-path);}.cls-6{fill:url(#linear-gradient);}.cls-29,.cls-7{opacity:0.5;}.cls-21,.cls-29,.cls-50,.cls-7{mix-blend-mode:soft-light;}.cls-8{fill:#beb8f2;}.cls-9{fill:url(#linear-gradient-2);}.cls-10{clip-path:url(#clip-path-2);}.cls-11{fill:#fcfdfe;}.cls-12{fill:url(#linear-gradient-3);}.cls-13{clip-path:url(#clip-path-3);}.cls-14{fill:#97a6b7;}.cls-15{fill:url(#linear-gradient-4);}.cls-16{fill:url(#linear-gradient-5);}.cls-17{fill:url(#linear-gradient-6);}.cls-18{fill:url(#linear-gradient-7);}.cls-19,.cls-21,.cls-29,.cls-50{fill:#fff;}.cls-20{fill:url(#linear-gradient-8);}.cls-21{opacity:0.1;}.cls-22{fill:url(#linear-gradient-9);}.cls-23{fill:url(#linear-gradient-10);}.cls-24{fill:url(#linear-gradient-11);}.cls-25{fill:url(#linear-gradient-12);}.cls-26{fill:url(#linear-gradient-13);}.cls-27{fill:url(#linear-gradient-14);}.cls-28{fill:url(#linear-gradient-15);}.cls-30{fill:url(#linear-gradient-16);}.cls-31{fill:url(#linear-gradient-17);}.cls-32{fill:url(#linear-gradient-18);}.cls-33{fill:url(#linear-gradient-19);}.cls-34{fill:url(#linear-gradient-20);}.cls-35,.cls-39,.cls-51,.cls-91{mix-blend-mode:multiply;}.cls-36{fill:url(#linear-gradient-21);}.cls-37{fill:url(#linear-gradient-22);}.cls-38{fill:url(#linear-gradient-23);}.cls-39,.cls-47,.cls-50,.cls-91{opacity:0.3;}.cls-40{fill:url(#linear-gradient-24);}.cls-41{fill:url(#linear-gradient-25);}.cls-42{fill:url(#linear-gradient-26);}.cls-43{fill:url(#linear-gradient-27);}.cls-44{fill:url(#linear-gradient-28);}.cls-45{fill:url(#linear-gradient-29);}.cls-46{fill:url(#linear-gradient-30);}.cls-47{fill:url(#linear-gradient-31);}.cls-48{fill:url(#linear-gradient-32);}.cls-49{fill:url(#linear-gradient-33);}.cls-52{fill:url(#linear-gradient-34);}.cls-53{fill:url(#linear-gradient-35);}.cls-54{fill:url(#linear-gradient-36);}.cls-55{fill:url(#linear-gradient-37);}.cls-56{fill:url(#linear-gradient-38);}.cls-57{fill:url(#linear-gradient-39);}.cls-58{fill:url(#linear-gradient-40);}.cls-59{fill:url(#linear-gradient-41);}.cls-60{fill:url(#linear-gradient-42);}.cls-61{fill:url(#linear-gradient-43);}.cls-62{fill:url(#linear-gradient-44);}.cls-63{fill:url(#linear-gradient-45);}.cls-64{fill:url(#linear-gradient-46);}.cls-65{fill:url(#linear-gradient-47);}.cls-66{fill:url(#linear-gradient-48);}.cls-67{fill:url(#linear-gradient-49);}.cls-68{fill:url(#linear-gradient-50);}.cls-69{fill:url(#linear-gradient-51);}.cls-70{fill:url(#linear-gradient-52);}.cls-71{fill:url(#linear-gradient-53);}.cls-72{fill:url(#linear-gradient-54);}.cls-73{fill:url(#linear-gradient-55);}.cls-74{fill:url(#linear-gradient-56);}.cls-75{fill:url(#linear-gradient-57);}.cls-76{fill:url(#linear-gradient-58);}.cls-77{fill:url(#linear-gradient-59);}.cls-78{fill:url(#linear-gradient-60);}.cls-79{fill:url(#linear-gradient-61);}.cls-80{fill:url(#linear-gradient-62);}.cls-81{fill:url(#linear-gradient-63);}.cls-82{fill:url(#linear-gradient-64);}.cls-83{fill:url(#linear-gradient-65);}.cls-84{fill:url(#linear-gradient-66);}.cls-85{fill:url(#linear-gradient-67);}.cls-86{fill:url(#linear-gradient-68);}.cls-87{fill:url(#linear-gradient-69);}.cls-88{fill:url(#linear-gradient-70);}.cls-89{fill:url(#linear-gradient-71);}.cls-90{fill:url(#linear-gradient-72);}.cls-91{fill:url(#linear-gradient-73);}.cls-92{fill:url(#linear-gradient-74);}.cls-93{fill:url(#linear-gradient-75);}.cls-94{fill:url(#linear-gradient-76);}.cls-95{fill:url(#linear-gradient-77);}</style><clipPath id="clip-path" transform="translate(2.3 5.06)"><path class="cls-1" d="M222.73,252.16l32.34-23.39s-5.91-21-22.31-27c-33.45-12.2-20.43-40.64-16.77-53.37,5.54-19.2,2-38.53-21.22-31.22s-25.44-35.37-12-65.09c13.12-29.08-31-69.17-65.17-8.84-20.41,36,7.76,64.92,18.52,82.89s-13.38,37.56,10.17,52c20.11,12.32,43.38,15.09,41.49,34.92S194.59,247.32,222.73,252.16Z"/></clipPath><linearGradient id="linear-gradient" x1="1491.96" y1="-1310.78" x2="1412.49" y2="-1084.93" gradientTransform="translate(-297 1958.93) rotate(-35.87)" gradientUnits="userSpaceOnUse"><stop offset="0" stop-color="#e38ddd"/><stop offset="1" stop-color="#9571f6"/></linearGradient><linearGradient id="linear-gradient-2" x1="-3247.49" y1="-713.19" x2="-3133.21" y2="-412.91" gradientTransform="matrix(-0.6, 0.8, 0.8, 0.6, -1386.62, 3076.78)" gradientUnits="userSpaceOnUse"><stop offset="0" stop-color="#ffc444"/><stop offset="1" stop-color="#f36f56"/></linearGradient><clipPath id="clip-path-2" transform="translate(2.3 5.06)"><path class="cls-1" d="M180.55,258.34,150.46,286s-28.92-6.35-26.93-22.38S100.08,238,87.24,231.27c-34.86-18.25-6.43-54-49.07-81.16-11.34-7.23-35.68-17-37.89-32.87-2.53-18,13.25-20,9.63-32.89C4.27,64.22,12.12,42.4,33.53,40c21.12-2.33,39.28,28.39,38.62,75.64,3.36,33.65,8.6,37.48,23.08,44.21,10.15,4.72,40.78,10.8,41.45,30.32s4.26,36.4,18.27,38C176.26,230.53,180.55,258.34,180.55,258.34Z"/></clipPath><linearGradient id="linear-gradient-3" x1="3103.04" y1="-1573.82" x2="3215.73" y2="-1388.29" gradientTransform="matrix(-0.53, 0.85, 0.85, 0.53, 3046.69, -1754.79)" gradientUnits="userSpaceOnUse"><stop offset="0" stop-color="#ff9085"/><stop offset="1" stop-color="#fb6fbb"/></linearGradient><clipPath id="clip-path-3" transform="translate(2.3 5.06)"><path class="cls-1" d="M167.83,175.91l-25.54,40c-6.89-1-18.75-4.21-15.87-14.1,4-13.77-15.48-26-24.45-27-11.11-1.25-36.89-4.71-31-26.07,4.9-17.77,11.59-28.44-6.19-40.69S42.08,78.25,54.19,61.38C66.92,43.62,53,14.25,70.31,3.88c30.19-18,55.86,30.52,47.53,69.73s14.22,27.51,29.86,35.82c21.35,11.34-1.38,37.88,1.87,50.51C152.12,169.85,161.59,174.05,167.83,175.91Z"/></clipPath><linearGradient id="linear-gradient-4" x1="205.63" y1="280.3" x2="206.62" y2="317.22" gradientUnits="userSpaceOnUse"><stop offset="0" stop-color="#444b8c"/><stop offset="1" stop-color="#26264f"/></linearGradient><linearGradient id="linear-gradient-5" x1="146.15" y1="135.52" x2="341.72" y2="230.68" gradientUnits="userSpaceOnUse"><stop offset="0" stop-color="#444b8c"/><stop offset="0.64" stop-color="#313365"/><stop offset="1" stop-color="#26264f"/></linearGradient><linearGradient id="linear-gradient-6" x1="49.77" y1="163.04" x2="337.16" y2="163.04" gradientUnits="userSpaceOnUse"><stop offset="0" stop-color="#fff"/><stop offset="1" stop-color="#ebeff2"/></linearGradient><linearGradient id="linear-gradient-7" x1="133.32" y1="-133.29" x2="228.35" y2="209.42" gradientUnits="userSpaceOnUse"><stop offset="0" stop-color="#aa80f9"/><stop offset="1" stop-color="#6165d7"/></linearGradient><linearGradient id="linear-gradient-8" x1="104.37" y1="221.22" x2="299.98" y2="316.39" xlink:href="#linear-gradient-4"/><linearGradient id="linear-gradient-9" x1="20.66" y1="299.51" x2="191.55" y2="299.51" gradientTransform="matrix(1, 0, 0, 1, 0, 0)" xlink:href="#linear-gradient-2"/><linearGradient id="linear-gradient-10" x1="37.28" y1="362.2" x2="51.21" y2="330.52" xlink:href="#linear-gradient-7"/><linearGradient id="linear-gradient-11" x1="75.33" y1="330.66" x2="236.79" y2="366.17" gradientUnits="userSpaceOnUse"><stop offset="0" stop-color="#f4f7fa"/><stop offset="1" stop-color="#d8dee8"/></linearGradient><linearGradient id="linear-gradient-12" x1="70.78" y1="344.08" x2="191.4" y2="344.08" xlink:href="#linear-gradient-7"/><linearGradient id="linear-gradient-13" x1="57.51" y1="276.77" x2="33.09" y2="359.03" gradientTransform="matrix(1, 0, 0, 1, 0, 0)" xlink:href="#linear-gradient-2"/><linearGradient id="linear-gradient-14" x1="82.71" y1="297.11" x2="244.17" y2="332.62" xlink:href="#linear-gradient-11"/><linearGradient id="linear-gradient-15" x1="70.78" y1="309.78" x2="191.4" y2="309.78" gradientTransform="matrix(1, 0, 0, 1, 0, 0)" xlink:href="#linear-gradient-2"/><linearGradient id="linear-gradient-16" x1="389.26" y1="313.04" x2="427.38" y2="337.1" gradientTransform="translate(-94.2 22.58) rotate(1.88)" gradientUnits="userSpaceOnUse"><stop offset="0" stop-color="#ab316d"/><stop offset="1" stop-color="#792d3d"/></linearGradient><linearGradient id="linear-gradient-17" x1="-124.67" y1="-824.12" x2="-143.46" y2="-821.4" gradientTransform="matrix(-0.07, -1, 1, -0.07, 1102.5, 154.76)" xlink:href="#linear-gradient-16"/><linearGradient id="linear-gradient-18" x1="-136.72" y1="-936.62" x2="-146" y2="-844.14" gradientTransform="matrix(-0.07, -1, 1, -0.07, 1102.5, 154.76)" xlink:href="#linear-gradient-2"/><linearGradient id="linear-gradient-19" x1="-139.79" y1="-944.7" x2="-140.57" y2="-911.38" gradientTransform="matrix(-0.07, -1, 1, -0.07, 1102.5, 154.76)" xlink:href="#linear-gradient-16"/><linearGradient id="linear-gradient-20" x1="290.43" y1="62.49" x2="304.33" y2="62.49" gradientTransform="matrix(1, 0, 0, 1, 0, 0)" xlink:href="#linear-gradient-16"/><linearGradient id="linear-gradient-21" x1="339.53" y1="46" x2="287.58" y2="138.07" gradientTransform="matrix(1, 0, 0, 1, 0, 0)" xlink:href="#linear-gradient-3"/><linearGradient id="linear-gradient-22" x1="304.72" y1="474.31" x2="306.86" y2="315.36" xlink:href="#linear-gradient-4"/><linearGradient id="linear-gradient-23" x1="309.87" y1="473.37" x2="312" y2="314.97" xlink:href="#linear-gradient-7"/><linearGradient id="linear-gradient-24" x1="269.53" y1="237.01" x2="355.82" y2="237.01" xlink:href="#linear-gradient-7"/><linearGradient id="linear-gradient-25" x1="269.53" y1="250.44" x2="355.77" y2="250.44" xlink:href="#linear-gradient-7"/><linearGradient id="linear-gradient-26" x1="314.08" y1="215.77" x2="308.25" y2="348.88" gradientTransform="matrix(1, 0, 0, 1, 0, 0)" xlink:href="#linear-gradient"/><linearGradient id="linear-gradient-27" x1="339.64" y1="230.54" x2="338.5" y2="256.64" gradientUnits="userSpaceOnUse"><stop offset="0" stop-color="#311944"/><stop offset="1" stop-color="#a03976"/></linearGradient><linearGradient id="linear-gradient-28" x1="346.18" y1="230.42" x2="345.03" y2="256.56" xlink:href="#linear-gradient-27"/><linearGradient id="linear-gradient-29" x1="339.64" y1="237.49" x2="338.41" y2="265.45" xlink:href="#linear-gradient-27"/><linearGradient id="linear-gradient-30" x1="346.19" y1="236.88" x2="344.88" y2="266.73" xlink:href="#linear-gradient-27"/><linearGradient id="linear-gradient-31" x1="3882.55" y1="-5763.25" x2="3881.44" y2="-5738.05" gradientTransform="translate(-5415.91 -3643.93) rotate(90)" xlink:href="#linear-gradient-27"/><linearGradient id="linear-gradient-32" x1="3875.74" y1="-5763.25" x2="3874.64" y2="-5738.04" gradientTransform="translate(-5415.91 -3643.93) rotate(90)" xlink:href="#linear-gradient-27"/><linearGradient id="linear-gradient-33" x1="3889.69" y1="-5763.42" x2="3888.5" y2="-5736.29" gradientTransform="translate(-5415.91 -3643.93) rotate(90)" xlink:href="#linear-gradient-27"/><linearGradient id="linear-gradient-34" x1="357.67" y1="228.3" x2="221.4" y2="304.1" gradientUnits="userSpaceOnUse"><stop offset="0" stop-color="#444b8c"/><stop offset="1" stop-color="#3e4177"/></linearGradient><linearGradient id="linear-gradient-35" x1="360.59" y1="237.36" x2="228.59" y2="310.78" xlink:href="#linear-gradient-34"/><linearGradient id="linear-gradient-36" x1="363.24" y1="245.85" x2="235.17" y2="317.1" xlink:href="#linear-gradient-34"/><linearGradient id="linear-gradient-37" x1="366.84" y1="253.83" x2="242.65" y2="322.92" xlink:href="#linear-gradient-34"/><linearGradient id="linear-gradient-38" x1="364.57" y1="239.07" x2="227.64" y2="315.25" xlink:href="#linear-gradient-34"/><linearGradient id="linear-gradient-39" x1="367.18" y1="248.04" x2="234.54" y2="321.82" xlink:href="#linear-gradient-34"/><linearGradient id="linear-gradient-40" x1="369.55" y1="256.45" x2="240.86" y2="328.04" xlink:href="#linear-gradient-34"/><linearGradient id="linear-gradient-41" x1="372.89" y1="264.33" x2="248.09" y2="333.76" xlink:href="#linear-gradient-34"/><linearGradient id="linear-gradient-42" x1="371.53" y1="249.46" x2="233.94" y2="325.99" xlink:href="#linear-gradient-34"/><linearGradient id="linear-gradient-43" x1="373.84" y1="258.34" x2="240.57" y2="332.48" xlink:href="#linear-gradient-34"/><linearGradient id="linear-gradient-44" x1="375.92" y1="266.67" x2="246.62" y2="338.6" xlink:href="#linear-gradient-34"/><linearGradient id="linear-gradient-45" x1="378.99" y1="274.47" x2="253.6" y2="344.22" xlink:href="#linear-gradient-34"/><linearGradient id="linear-gradient-46" x1="378.53" y1="259.46" x2="240.32" y2="336.35" xlink:href="#linear-gradient-34"/><linearGradient id="linear-gradient-47" x1="380.54" y1="268.27" x2="246.66" y2="342.74" xlink:href="#linear-gradient-34"/><linearGradient id="linear-gradient-48" x1="382.35" y1="276.53" x2="252.45" y2="348.78" xlink:href="#linear-gradient-34"/><linearGradient id="linear-gradient-49" x1="385.63" y1="270.42" x2="246.74" y2="347.69" xlink:href="#linear-gradient-34"/><linearGradient id="linear-gradient-50" x1="387.33" y1="279.14" x2="252.79" y2="353.98" xlink:href="#linear-gradient-34"/><linearGradient id="linear-gradient-51" x1="388.85" y1="287.31" x2="258.32" y2="359.92" xlink:href="#linear-gradient-34"/><linearGradient id="linear-gradient-52" x1="387.9" y1="289.73" x2="262.4" y2="359.54" xlink:href="#linear-gradient-34"/><linearGradient id="linear-gradient-53" x1="284.83" y1="260.37" x2="282.58" y2="311.63" xlink:href="#linear-gradient-4"/><linearGradient id="linear-gradient-54" x1="305.03" y1="259.61" x2="302.82" y2="309.91" xlink:href="#linear-gradient-4"/><linearGradient id="linear-gradient-55" x1="325.23" y1="258.85" x2="323.07" y2="308.19" xlink:href="#linear-gradient-4"/><linearGradient id="linear-gradient-56" x1="344.75" y1="258.12" x2="342.63" y2="306.52" xlink:href="#linear-gradient-4"/><linearGradient id="linear-gradient-57" x1="284.83" y1="274.83" x2="282.54" y2="326.92" xlink:href="#linear-gradient-4"/><linearGradient id="linear-gradient-58" x1="305.02" y1="273.83" x2="302.77" y2="324.93" xlink:href="#linear-gradient-4"/><linearGradient id="linear-gradient-59" x1="325.21" y1="272.83" x2="323.01" y2="322.94" xlink:href="#linear-gradient-4"/><linearGradient id="linear-gradient-60" x1="344.72" y1="271.87" x2="342.56" y2="321.02" xlink:href="#linear-gradient-4"/><linearGradient id="linear-gradient-61" x1="284.83" y1="288.94" x2="282.51" y2="341.84" xlink:href="#linear-gradient-4"/><linearGradient id="linear-gradient-62" x1="305" y1="287.7" x2="302.73" y2="339.59" xlink:href="#linear-gradient-4"/><linearGradient id="linear-gradient-63" x1="325.19" y1="286.47" x2="322.95" y2="337.34" xlink:href="#linear-gradient-4"/><linearGradient id="linear-gradient-64" x1="344.69" y1="285.28" x2="342.5" y2="335.17" xlink:href="#linear-gradient-4"/><linearGradient id="linear-gradient-65" x1="284.82" y1="302.7" x2="282.47" y2="356.4" xlink:href="#linear-gradient-4"/><linearGradient id="linear-gradient-66" x1="304.99" y1="301.24" x2="302.68" y2="353.89" xlink:href="#linear-gradient-4"/><linearGradient id="linear-gradient-67" x1="325.16" y1="299.78" x2="322.9" y2="351.39" xlink:href="#linear-gradient-4"/><linearGradient id="linear-gradient-68" x1="284.82" y1="317.45" x2="282.43" y2="372.01" xlink:href="#linear-gradient-4"/><linearGradient id="linear-gradient-69" x1="304.98" y1="315.74" x2="302.63" y2="369.22" xlink:href="#linear-gradient-4"/><linearGradient id="linear-gradient-70" x1="325.14" y1="314.04" x2="322.84" y2="366.45" xlink:href="#linear-gradient-4"/><linearGradient id="linear-gradient-71" x1="345.24" y1="291.63" x2="339.59" y2="420.51" xlink:href="#linear-gradient-4"/><linearGradient id="linear-gradient-72" x1="174.29" y1="810.33" x2="198.28" y2="144" xlink:href="#linear-gradient-7"/><linearGradient id="linear-gradient-73" x1="191.83" y1="217.75" x2="193.57" y2="169.24" xlink:href="#linear-gradient-7"/><linearGradient id="linear-gradient-74" x1="208.02" y1="100.88" x2="198.02" y2="175.5" xlink:href="#linear-gradient-7"/><linearGradient id="linear-gradient-75" x1="206.6" y1="79.76" x2="193.54" y2="245.71" xlink:href="#linear-gradient-7"/><linearGradient id="linear-gradient-76" x1="279.33" y1="97.44" x2="191.46" y2="250.27" gradientTransform="matrix(1, 0, 0, 1, 0, 0)" xlink:href="#linear-gradient-2"/><linearGradient id="linear-gradient-77" x1="269.74" y1="234.77" x2="275.49" y2="181.08" gradientTransform="matrix(1, 0, 0, 1, 0, 0)" xlink:href="#linear-gradient-2"/></defs><title>Asset 12</title><g class="cls-2"><g id="Layer_2" data-name="Layer 2"><g id="Layer_1-2" data-name="Layer 1"><path class="cls-3" d="M337.42,98.06c4,2,9,.17,11.16-4.14s.74-9.44-3.24-11.46a5.78,5.78,0,0,0-.63-.28A50.14,50.14,0,0,0,346.38,75q.35,0,.69,0a9.15,9.15,0,0,0,8.05-9.32,7.74,7.74,0,0,0-8.39-7.85c-.24,0-.47.06-.7.1A47,47,0,0,0,344.08,51c.21-.12.42-.25.62-.39a9.16,9.16,0,0,0,2.78-12,7.77,7.77,0,0,0-11.3-2.14c-.2.14-.39.29-.57.44a40.83,40.83,0,0,0-5-4.7c.13-.21.25-.42.37-.65,2.19-4.31,5.05-9,1-11-9.28-4.53-13.26-.65-15.45,3.65-.11.23-.21.45-.3.68a41.45,41.45,0,0,0-6.77-1.29c0-.24,0-.48,0-.72-.09-4.75,1.31-7.31-3.25-7.4-9.93-.19-13.29,4.12-13.19,8.86a5.84,5.84,0,0,0,.05.73,45.81,45.81,0,0,0-6.7,2.49q-.15-.32-.33-.63a7.75,7.75,0,0,0-11.29-2.14,9.16,9.16,0,0,0-2.78,12c.12.2.25.38.39.57A50.93,50.93,0,0,0,267.55,43a5.82,5.82,0,0,0-.6-.34c-4-2-9-.17-11.16,4.14s-.74,9.44,3.24,11.46a5.78,5.78,0,0,0,.63.28A50.14,50.14,0,0,0,258,65.73q-.35,0-.69,0a9.15,9.15,0,0,0-8.05,9.32,7.74,7.74,0,0,0,8.39,7.85,5.36,5.36,0,0,0,.7-.1,47,47,0,0,0,2,6.87c-.21.12-.42.25-.62.39a9.15,9.15,0,0,0-2.77,12c2.35,3.91,10.14,5.72,14,3,.2-.14-2.34-1.15-2.16-1.3a40.83,40.83,0,0,0,5,4.7c-.13.21-.25.43-.37.65-2.19,4.31-.73,9.44,3.25,11.46s9,.17,11.17-4.14c.11-.23.21-.45.3-.68a41.65,41.65,0,0,0,6.77,1.29c0,.24,0,.48,0,.72a7.75,7.75,0,0,0,8.39,7.86,9.16,9.16,0,0,0,8-9.32,5.84,5.84,0,0,0,0-.73,45.81,45.81,0,0,0,6.7-2.49,6.25,6.25,0,0,0,.33.63,7.75,7.75,0,0,0,11.29,2.14,9.16,9.16,0,0,0,2.78-12c-.12-.2-.25-.38-.39-.57a50.93,50.93,0,0,0,4.82-5.59A5.82,5.82,0,0,0,337.42,98.06Zm-49.62.63c-14.45-7.33-19.72-26-11.78-41.61s26.1-22.39,40.55-15,19.72,26,11.78,41.62S302.25,106,287.8,98.69Z" transform="translate(2.3 5.06)"/><path class="cls-4" d="M347.07,75a9.15,9.15,0,0,0,8.05-9.32,7.74,7.74,0,0,0-8.39-7.85c-.24,0-.47.06-.7.1A47,47,0,0,0,344.08,51c.21-.12.42-.25.62-.39,3.89-2.72,8.69-9.3,5.95-12.94-5.2-6.92-10.58-3.92-14.47-1.2-.2.14-.39.29-.57.44a40.83,40.83,0,0,0-5-4.7c.13-.21.25-.42.37-.65a9.07,9.07,0,0,0,.51-7.13q-5.64,9.91-11.09,19.91c11.53,8.44,15.2,25.09,8,39.29-6.11,12-18.24,18.78-30.1,17.93-.53,1.37-1,2.75-1.61,4.11-1.54,3.68-3.28,7.29-5,10.9,1.1.2,2.2.37,3.31.48,0,.24,0,.48,0,.72.09,4.75,3,8.78,11.2,8.34,4.56-.24,5.34-5.06,5.24-9.8a5.84,5.84,0,0,0,0-.73,45.81,45.81,0,0,0,6.7-2.49,6.25,6.25,0,0,0,.33.63c2.35,3.91,10.51,5.56,14.4,2.84s2-8.79-.33-12.7c-.12-.2-.25-.38-.39-.57a50.93,50.93,0,0,0,4.82-5.59,5.82,5.82,0,0,0,.6.34c4,2,9,.17,11.16-4.14s.74-9.44-3.24-11.46a5.78,5.78,0,0,0-.63-.28A50.14,50.14,0,0,0,346.38,75Q346.73,75,347.07,75Z" transform="translate(2.3 5.06)"/><path class="cls-4" d="M341.7,98.55c4,2,9,.16,11.16-4.14s.74-9.45-3.24-11.47q-.31-.15-.63-.27a50,50,0,0,0,1.67-7.2c.23,0,.46,0,.69,0a9.16,9.16,0,0,0,8-9.32A7.76,7.76,0,0,0,351,58.27l-.7.1a46.83,46.83,0,0,0-1.95-6.86c.21-.13.42-.25.62-.39a9.16,9.16,0,0,0,2.78-12A7.76,7.76,0,0,0,340.46,37c-.2.14-.38.29-.57.45a41,41,0,0,0-5-4.71,6.67,6.67,0,0,0,.37-.64c2.19-4.31.73-9.44-3.25-11.46s-9-.17-11.16,4.14a5.93,5.93,0,0,0-.31.68,40.41,40.41,0,0,0-6.77-1.29,5.88,5.88,0,0,0,0-.73,7.74,7.74,0,0,0-8.39-7.85,9.15,9.15,0,0,0-8.05,9.32,5.84,5.84,0,0,0,.05.73,46.38,46.38,0,0,0-6.69,2.48c-.11-.21-.22-.42-.34-.62A7.74,7.74,0,0,0,279,25.33a9.15,9.15,0,0,0-2.78,12c.12.2.26.39.39.58a50,50,0,0,0-4.82,5.59c-.19-.12-.39-.24-.59-.34-4-2-9-.17-11.17,4.14s-.74,9.44,3.24,11.46c.21.11.42.19.63.28a49.83,49.83,0,0,0-1.67,7.19q-.34,0-.69,0a9.15,9.15,0,0,0-8,9.32,7.75,7.75,0,0,0,8.39,7.85c.24,0,.47-.06.71-.1a45.71,45.71,0,0,0,1.94,6.87c-.21.12-.42.25-.62.39a9.15,9.15,0,0,0-2.77,12,7.75,7.75,0,0,0,11.29,2.14c.2-.14.39-.29.57-.44a41.61,41.61,0,0,0,5,4.7c-.13.21-.25.42-.37.65-2.18,4.31-.73,9.44,3.25,11.46s9,.16,11.17-4.15c.11-.22.21-.45.3-.67a41.65,41.65,0,0,0,6.77,1.29c0,.24,0,.48,0,.72a7.76,7.76,0,0,0,8.39,7.86,9.15,9.15,0,0,0,8.05-9.32,6.13,6.13,0,0,0-.05-.74,44.64,44.64,0,0,0,6.7-2.48q.15.32.33.63a7.75,7.75,0,0,0,11.29,2.14,9.16,9.16,0,0,0,2.78-12,5.72,5.72,0,0,0-.39-.57,50.93,50.93,0,0,0,4.82-5.59C341.29,98.33,341.49,98.44,341.7,98.55Zm-49.62.63c-14.45-7.34-19.72-26-11.78-41.62s26.1-22.38,40.55-15,19.73,26,11.78,41.61S306.53,106.52,292.08,99.18Z" transform="translate(2.3 5.06)"/><g class="cls-5"><path class="cls-6" d="M222.73,252.16l32.34-23.39s-5.91-21-22.31-27c-33.45-12.2-20.43-40.64-16.77-53.37,5.54-19.2,1.83-36.16-19.55-33.43-24.19,3.08-27.11-33.16-13.71-62.88,13.12-29.08-31-69.17-65.17-8.84-20.41,36,7.76,64.92,18.52,82.89s-13.38,37.56,10.17,52c20.11,12.32,43.38,15.09,41.49,34.92S194.59,247.32,222.73,252.16Z" transform="translate(2.3 5.06)"/><g class="cls-7"><path class="cls-8" d="M238.9,245l.58-.61c-.38-.36-38-36.62-64.47-83.82C150.64,117.13,131,55.2,176,7.1l-.61-.57c-20,21.41-29.15,47.29-27.09,76.93,1.64,23.67,10.38,49.77,26,77.58C200.81,208.34,238.52,244.68,238.9,245Z" transform="translate(2.3 5.06)"/><path class="cls-8" d="M149.71,95.8l.62-.57c-19.12-20.52-33.7-58.77-33.85-59.16l-.78.3C115.84,36.76,130.48,75.16,149.71,95.8Z" transform="translate(2.3 5.06)"/><path class="cls-8" d="M148.88,76C161.51,45.08,188,36.41,188.22,36.33l-.25-.8c-.27.08-27.09,8.85-39.87,40.17Z" transform="translate(2.3 5.06)"/><path class="cls-8" d="M194,190.52c-15.65-37.71,22.43-77.27,22.83-77.63l-.51-.67c-.43.31-38.88,40.58-23.09,78.63Z" transform="translate(2.3 5.06)"/><path class="cls-8" d="M183.92,177l.56-.62c-19.24-17.56-51.95-15.57-52.28-15.54l.06.84C132.58,161.69,164.94,159.72,183.92,177Z" transform="translate(2.3 5.06)"/><path class="cls-8" d="M233.68,238.59c-8.08-13.24,2.64-36.1,2.75-36.33l-.76-.36c-.46.95-11,23.5-2.71,37.13Z" transform="translate(2.3 5.06)"/><path class="cls-8" d="M224.66,230.13l.59-.61c-8.76-8.58-31.46-8.79-38.92-8.85-1.05,0-2,0-2.13,0l-.18.82a19,19,0,0,0,2.3.07C193.7,221.58,216.14,221.78,224.66,230.13Z" transform="translate(2.3 5.06)"/></g></g><path class="cls-9" d="M155,228.16c12.25,1.36,18.56,11.51,22,19.57a12.38,12.38,0,0,0-1.22,2.86c-4,10.26-7.88,13.79-13.41,23.29-1.19,2-6.5,7-8.8,8.86l-4.35,3.43s-27.61-6.56-25.62-22.59S100.08,238,87.24,231.27c-7.89-4.13-10.18-8.55-12.83-10.53-28.11-21-42.58-17.88-47.52-30.32C21.43,176.68,37.5,169,32.35,153.71,26.53,136.49,2.14,134.77.28,117.24a23.08,23.08,0,0,1,.61-9.95c2.92-9.52,11.83-12.93,9-22.94C4.27,64.22,12.12,42.4,33.53,40c21.12-2.33,39.28,28.39,38.62,75.64,3.36,33.65,8.6,37.48,23.08,44.21,10.15,4.72,40.78,10.8,41.45,30.32S140.94,226.6,155,228.16Z" transform="translate(2.3 5.06)"/><g class="cls-10"><g class="cls-7"><path class="cls-11" d="M165.85,269.36l-.52.62c-3.42-2.88-6.83-5.83-10.13-8.77a435.11,435.11,0,0,1-63.52-69.63A354.81,354.81,0,0,1,54.36,127,305.32,305.32,0,0,1,36.18,73a252.85,252.85,0,0,1-5.89-37.07c-.17-2.08-.22-4.22-.28-6.3a82.59,82.59,0,0,0-.48-8.34l.78-.15c.34,2.76.41,5.63.48,8.41.06,2.07.11,4.2.27,6.26a253,253,0,0,0,5.88,37,305.72,305.72,0,0,0,18.13,53.87,354.92,354.92,0,0,0,37.25,64.45,434.15,434.15,0,0,0,63.42,69.51C159,263.54,162.44,266.49,165.85,269.36Z" transform="translate(2.3 5.06)"/><path class="cls-11" d="M68.12,153l-.68.43C51,125.53-1.77,107.26-2.3,107.08l.3-.74C-1.46,106.52,51.58,124.88,68.12,153Z" transform="translate(2.3 5.06)"/><path class="cls-11" d="M121.16,226.46l-.63.51c-13.46-17.48-3.51-61.07-3.41-61.51l.76.12C117.78,166,107.91,209.26,121.16,226.46Z" transform="translate(2.3 5.06)"/><path class="cls-11" d="M129.71,235.65l-.54.6c-10.79-9.51-31-16.28-57-19.08-1.3-.14-1.3-.14-1.41-.23l.53-.61-.27.3.14-.37,1.15.13C98.44,219.2,118.82,226,129.71,235.65Z" transform="translate(2.3 5.06)"/><path class="cls-11" d="M159.7,264l-.68.44c-8.13-13.69.83-37.09.92-37.32l.72.23C160.57,227.59,151.75,250.64,159.7,264Z" transform="translate(2.3 5.06)"/><path class="cls-11" d="M165.22,270.41c-12.24-4.19-26.36-4.88-43.15-2.11l-.07-.78c16.92-2.78,31.16-2.08,43.52,2.14Z" transform="translate(2.3 5.06)"/><path class="cls-11" d="M39.59,83.33l-.7.4C30.67,67.64,18.16,52.94,14.05,48.11c-1-1.17-1.34-1.58-1.44-1.75l.69-.42c.07.13.64.79,1.36,1.64C18.78,52.43,31.33,67.17,39.59,83.33Z" transform="translate(2.3 5.06)"/><path class="cls-11" d="M48.93,111.78l-.77.18C45.41,94.92,66,65.11,66.89,63.85l.63.42C67.31,64.57,46.23,95.05,48.93,111.78Z" transform="translate(2.3 5.06)"/></g></g><path class="cls-12" d="M197.09,207.82c-1.3,1.58-8.93-6-23.46-8.15-3.63-.54-23.24-4.81-31.7,7.68L137,214.63c-6.9-1.36-13.16-3.92-10.58-12.78,4-13.77-15.48-26-24.45-27-11.11-1.25-36.89-4.71-31-26.07,4.9-17.77,11.59-28.44-6.19-40.7S42.08,78.25,54.19,61.38C66.92,43.62,53,14.25,70.31,3.88c30.19-18,55.86,30.52,47.53,69.73s14.22,27.51,29.86,35.82a30.21,30.21,0,0,1,5.7,4.45c13.41,13.32,5.88,31.32,11.36,51C172.23,191.72,199.28,205.14,197.09,207.82Z" transform="translate(2.3 5.06)"/><g class="cls-13"><g class="cls-7"><path class="cls-11" d="M149.8,191l-.7.76C97.59,142.82,71.27,67.39,80.41-5.06l1,.07C72.3,67.16,98.51,142.27,149.8,191Z" transform="translate(2.3 5.06)"/><path class="cls-11" d="M124.12,161.77l-.55.87c-23.83-14.59-55.92-4.58-56.25-4.47l-.25-1C67.4,157.1,99.92,147,124.12,161.77Z" transform="translate(2.3 5.06)"/><path class="cls-11" d="M140.58,181.76l-.87.52c-13.66-25.05,12.42-72.94,12.69-73.42l.86.45C153,109.79,127.18,157.18,140.58,181.76Z" transform="translate(2.3 5.06)"/><path class="cls-11" d="M92,99.26l-.84.59C78.66,81.08,44,76.55,43.66,76.5l.17-1C44.19,75.55,79.27,80.14,92,99.26Z" transform="translate(2.3 5.06)"/><path class="cls-11" d="M81.58,54.37l-1,0c.9-26.52,26.32-52.87,26.57-53.13l.69.68C107.59,2.2,82.46,28.26,81.58,54.37Z" transform="translate(2.3 5.06)"/></g></g><path class="cls-14" d="M342,240.9V72.84c0-3.45-2.86-3.84-6.34-4L46.9,54.71c-4.39-.17-8,2.86-8,6.75V247.2Z" transform="translate(2.3 5.06)"/><path class="cls-14" d="M38.9,247.2v37.09c0,3.89,3.61,6.92,8,6.73l287.43-14.68c3.48-.15,7.63-.61,7.63-4.06V239.83Z" transform="translate(2.3 5.06)"/><path class="cls-14" d="M239.8,316a15.37,15.37,0,0,1-10.19-11.57L222,267l-64.78,2.3-8,39.05c-1.11,5.47,3.36,11,8.51,13l27.1,10.6a35.13,35.13,0,0,0,15.84,2.3l57.28-4.9a3.56,3.56,0,0,0,3.22-3.15c.19-1.69,1.36-3.58-.23-4.11Z" transform="translate(2.3 5.06)"/><path class="cls-15" d="M240.44,313.73a15.23,15.23,0,0,1-10.18-11.42l-7.56-37-63.2,2.27-8,38.56a11.28,11.28,0,0,0,7,12.8l27.07,10.47a35.48,35.48,0,0,0,15.83,2.27l57.23-4.84a3.53,3.53,0,0,0,.8-6.87Z" transform="translate(2.3 5.06)"/><path class="cls-16" d="M344.07,72.84V240.91l-178.77,3.7L40.68,247.2V61.46c0-3.89,3.68-6.93,8.08-6.75l24.39,1L337.64,66.32A6.72,6.72,0,0,1,344.07,72.84Z" transform="translate(2.3 5.06)"/><path class="cls-17" d="M49.77,87.31V232.4c0,3.62,3.34,6.48,7.42,6.37l274-7.79a6.14,6.14,0,0,0,5.94-6V95.53Z" transform="translate(2.3 5.06)"/><path class="cls-18" d="M337.16,95.53V80.68a6.07,6.07,0,0,0-5.82-6L57,64.48c-4-.15-7.27,2.63-7.27,6.18V87.31Z" transform="translate(2.3 5.06)"/><path class="cls-19" d="M69.82,76a2.33,2.33,0,0,1-2.54,2.18,2.51,2.51,0,0,1-2.55-2.34,2.32,2.32,0,0,1,2.55-2.18A2.52,2.52,0,0,1,69.82,76Z" transform="translate(2.3 5.06)"/><path class="cls-19" d="M80.76,76.37a2.3,2.3,0,0,1-2.51,2.17,2.5,2.5,0,0,1-2.51-2.33A2.3,2.3,0,0,1,78.25,74,2.49,2.49,0,0,1,80.76,76.37Z" transform="translate(2.3 5.06)"/><path class="cls-19" d="M91.59,76.73a2.28,2.28,0,0,1-2.49,2.15,2.46,2.46,0,0,1-2.48-2.32,2.28,2.28,0,0,1,2.48-2.15A2.48,2.48,0,0,1,91.59,76.73Z" transform="translate(2.3 5.06)"/><path class="cls-20" d="M344.07,239.83v32.45a6.72,6.72,0,0,1-6.41,6.53l-10.51.45L48.78,291c-4.4.19-8.1-2.84-8.1-6.73V247.2l124.25-3Z" transform="translate(2.3 5.06)"/><path class="cls-21" d="M327.1,279.26,48.76,291c-4.4.19-8.08-2.84-8.08-6.73V61.46c0-3.89,3.68-6.93,8.08-6.75l24.39,1A38.61,38.61,0,0,1,82.91,65c.12.17.25.33.36.49a34.52,34.52,0,0,1,4.6,9.21A43.34,43.34,0,0,1,89,78.87a57.87,57.87,0,0,1,1.14,9.6c.29,6.86-.24,13.91-.22,20.85.06,14.07.94,28.13,10.28,39.46,6.91,8.39,18.17,11.58,27.52,16.46,10.9,5.69,20.47,13.24,26,24.46,6.8,13.77.41,28.73,4.76,43a29.27,29.27,0,0,0,1.18,3.21,34.22,34.22,0,0,0,5.24,8.32c.12.15.24.29.37.43,8.32,9.56,21.64,15.54,33.18,18.43,23.69,5.92,48.26-4.35,71.77-5.15,16.94-.58,40.37,3.24,52.83,16A27.07,27.07,0,0,1,327.1,279.26Z" transform="translate(2.3 5.06)"/><polygon class="cls-22" points="20.66 291.49 100.06 288.04 191.55 291.25 101.3 310.98 20.66 291.49"/><path class="cls-23" d="M82.34,363,18,345.64c-6.48-1.74-11.51-8.16-11.51-14.38v-.07c0-6.23,5-10.4,11.51-9.26l69,11.29Z" transform="translate(2.3 5.06)"/><path class="cls-24" d="M189.36,350,85.44,361.56c-6.51.72-11.86-3.82-11.86-10.15v-4.3c0-6.34,5.35-11.9,11.86-12.42l103.92-8.27C184.76,335,183.7,343,189.36,350Z" transform="translate(2.3 5.06)"/><path class="cls-25" d="M190.27,351.1l-104,11.79c-8.49,1-15.53-5-15.53-13.27v-.09c0-8.29,7-15.59,15.53-16.25l104-8.11a1.09,1.09,0,0,1,1.13,1.17,1.32,1.32,0,0,1-1.13,1.34l-104,8.46c-6.83.56-12.47,6.44-12.47,13.09v.09c0,6.66,5.64,11.46,12.47,10.71l104-11.43a1,1,0,0,1,1.13,1.12A1.38,1.38,0,0,1,190.27,351.1Z" transform="translate(2.3 5.06)"/><path class="cls-26" d="M85,333.29,18,321.93c-6.48-1.14-11.51-9.63-11.51-19v-.1c0-9.35,5-16.76,11.51-16.52L89.12,289Z" transform="translate(2.3 5.06)"/><path class="cls-27" d="M189.36,323.36l-98.1,7.4c-9.67.73-17.68-6.38-17.68-15.9v-6.45c0-9.51,8-17.45,17.68-17.71l98.1-2.67C184.75,300.85,183.72,312.87,189.36,323.36Z" transform="translate(2.3 5.06)"/><path class="cls-28" d="M190.27,325.17l-104,8.11c-8.49.66-15.53-8.92-15.53-21.36v-.14c0-12.45,7-22.75,15.53-23l104-2.58c.62,0,1.13.81,1.13,1.85s-.51,1.89-1.13,1.91l-104,3.12c-6.83.2-12.47,8.51-12.47,18.5v.14c0,10,5.64,17.72,12.47,17.22l104-7.57c.62-.05,1.13.76,1.13,1.8S190.89,325.12,190.27,325.17Z" transform="translate(2.3 5.06)"/><path class="cls-29" d="M64.26,323.92l-14.33-2.5c-3.34-9.13-3.09-17.52,0-27.54l14.33,1A52.66,52.66,0,0,0,64.26,323.92Z" transform="translate(2.3 5.06)"/><path class="cls-30" d="M370,342.12,213.51,353.3l.81,11.3,156.5-11.18A13.4,13.4,0,0,0,370,342.12Z" transform="translate(2.3 5.06)"/><path class="cls-31" d="M371.64,349.87a13,13,0,0,0-.29-4.26L213.77,356.88l.3,4.25Z" transform="translate(2.3 5.06)"/><path class="cls-32" d="M213.51,353.3a10.57,10.57,0,0,1,.81,11.3l-35.8-2.75a.37.37,0,0,1-.06-.73Z" transform="translate(2.3 5.06)"/><path class="cls-33" d="M178.52,361.85l13.91,1.07a9.81,9.81,0,0,0-.34-4.84l-13.63,3A.37.37,0,0,0,178.52,361.85Z" transform="translate(2.3 5.06)"/><path class="cls-34" d="M290.43,64.42v-.17a4.36,4.36,0,0,1,4.38-4.43l1.64-.08,7.88,3v2.46Z" transform="translate(2.3 5.06)"/><path class="cls-35" d="M332.79,116.65l-17.53-13.47-17.7,12.65V73.31a11.15,11.15,0,0,0-4.18-8.64l-.14-.11,33.42,1.27a6.42,6.42,0,0,1,6.13,6.38Z" transform="translate(2.3 5.06)"/><path class="cls-36" d="M336,114.88l-17.53-14.26L300.76,114V69a12.14,12.14,0,0,0-4.17-9.15l-.14-.11,33.42,1.34A6.64,6.64,0,0,1,336,67.84Z" transform="translate(2.3 5.06)"/><path class="cls-37" d="M351,228.14l-.28,93.8a9.54,9.54,0,0,1-8.39,9.26l-68.58,7c-5.28.54-9.61-3.11-9.61-8.06v-101a9.36,9.36,0,0,1,8.71-9c.31,0,.62,0,.94,0l68.83-.33A8.29,8.29,0,0,1,351,228.14Z" transform="translate(2.3 5.06)"/><path class="cls-38" d="M355.82,228.07l-.29,93.51a9.31,9.31,0,0,1-8.15,9.21l-68.1,7c-5.25.54-9.76-3.08-9.76-8l0-100.63c0-4.67,3.91-8.53,8.75-9,.3,0,.73,0,1,0l68.36-.32A8.08,8.08,0,0,1,355.82,228.07Z" transform="translate(2.3 5.06)"/><g class="cls-39"><path class="cls-40" d="M355.82,227.94l-.07,23.5-86.22,2.83V229c0-4.55,3.73-8.27,8.4-8.88.42-.05,1,0,1.39,0l68.36-.32A8,8,0,0,1,355.82,227.94Z" transform="translate(2.3 5.06)"/><path class="cls-41" d="M355.77,244.21l0,9.77c-8.37,2.65-23.76,4.79-41.42,5.47-7.8.3-15.35.29-22.16,0A145.42,145.42,0,0,1,269.53,257V246.5c2.22-.55,4.25-1.05,6.67-1.53a185.7,185.7,0,0,1,18.47-2.55c6.18-.58,12.87-1,19.78-1.13,8.89-.2,17.14,0,24.23.52l1.64.12c1.7.14,3.33.3,4.88.48l1.61.19c1.22.15,2.26.32,3.36.49C352.29,243.43,354.17,243.8,355.77,244.21Z" transform="translate(2.3 5.06)"/></g><path class="cls-19" d="M351.6,246.47a2.64,2.64,0,0,1-2.55,2.61l-70.75,2.17a2.69,2.69,0,0,1-2.88-2.62V231.74a2.83,2.83,0,0,1,2.88-2.74l70.8-.86a2.48,2.48,0,0,1,2.53,2.5Z" transform="translate(2.3 5.06)"/><path class="cls-42" d="M350,246.17a1.65,1.65,0,0,1-1.61,1.64L278,249.89a1.71,1.71,0,0,1-1.82-1.65V231.42a1.78,1.78,0,0,1,1.82-1.73l70.45-.9a1.57,1.57,0,0,1,1.6,1.58Z" transform="translate(2.3 5.06)"/><path class="cls-43" d="M340.26,236.79a.76.76,0,0,1-.81.74h0a.72.72,0,0,1-.81-.7v-3.26a.79.79,0,0,1,.81-.78h0a.75.75,0,0,1,.8.75Z" transform="translate(2.3 5.06)"/><path class="cls-44" d="M346.78,236.68a.76.76,0,0,1-.79.74h0a.72.72,0,0,1-.79-.71v-3.25a.78.78,0,0,1,.79-.78h0a.75.75,0,0,1,.79.75Z" transform="translate(2.3 5.06)"/><path class="cls-45" d="M340.24,244.09a.89.89,0,0,1-.81.89h0a.84.84,0,0,1-.8-.85v-3.35a.9.9,0,0,1,.81-.88h0a.83.83,0,0,1,.8.84Z" transform="translate(2.3 5.06)"/><path class="cls-46" d="M346.76,244c0,.43-.35.57-.79.92h0a.87.87,0,0,1-.79-.88v-3.5c0-.44.36-1,.79-1h0c.44,0,.79.56.79,1Z" transform="translate(2.3 5.06)"/><path class="cls-47" d="M345.18,238.39a.83.83,0,0,1-.81.81l-3.14.07c-.44,0-.64-.34-.64-.78v0c0-.44.19-.8.64-.81l3.23-.07a.71.71,0,0,1,.72.77Z" transform="translate(2.3 5.06)"/><path class="cls-48" d="M345.18,231.6a.82.82,0,0,1-.8.8l-3.15,0c-.44,0-.64-.34-.64-.78v0c0-.43.2-.79.65-.8l3.22-.05a.72.72,0,0,1,.72.78Z" transform="translate(2.3 5.06)"/><path class="cls-49" d="M345.18,245.5a.84.84,0,0,1-.82.81l-3.31.1a.78.78,0,0,1-.81-.78v0a.82.82,0,0,1,.8-.81l3.32-.09a.78.78,0,0,1,.82.76Z" transform="translate(2.3 5.06)"/><path class="cls-50" d="M319.59,327.57a19.13,19.13,0,0,1-1.43,4.64c-.24.53-.52,1.09-.83,1.66l-38.05,3.89c-5.25.54-9.76-3.08-9.76-8l0-100.78c0-4.55,3.73-8.34,8.4-8.95l.4.1c4.91,1.49,10.26,4.26,13.46,9.44a21.94,21.94,0,0,1,2.92,12.86,37.72,37.72,0,0,1-.5,4.47c-.16.92-.32,1.86-.48,2.81-.2,1.2-.4,2.42-.59,3.66-.31,2-.59,4-.82,6.09s-.38,4-.46,6c0,.38,0,.77,0,1.15,0,1.25,0,2.49,0,3.72,0,.84.08,1.67.15,2.5a31.32,31.32,0,0,0,3.69,12.93,25.36,25.36,0,0,0,6.78,7.15l2.08,1.58a55.4,55.4,0,0,1,6.68,5.76l.15.16a31.83,31.83,0,0,1,2.73,3.26,24.17,24.17,0,0,1,2.38,4.07c.25.54.48,1.1.7,1.66a29.63,29.63,0,0,1,1,3c.13.45.25.91.37,1.38,0,0,0,0,0,.06a48.1,48.1,0,0,1,1.13,5.76A26.44,26.44,0,0,1,319.59,327.57Z" transform="translate(2.3 5.06)"/><g class="cls-51"><path class="cls-52" d="M292,271.33a2,2,0,0,1-1.89,1.89l-12.77.63a1.78,1.78,0,0,1-1.94-1.72v-4.58a2,2,0,0,1,1.94-1.91l12.78-.54a1.76,1.76,0,0,1,1.89,1.71Z" transform="translate(2.3 5.06)"/><path class="cls-53" d="M312.65,270.35a1.91,1.91,0,0,1-1.83,1.85l-12.33.61a1.73,1.73,0,0,1-1.87-1.7v-4.5a1.93,1.93,0,0,1,1.87-1.86l12.33-.53a1.71,1.71,0,0,1,1.83,1.69Z" transform="translate(2.3 5.06)"/><path class="cls-54" d="M331.92,269.43a1.86,1.86,0,0,1-1.77,1.82l-11.92.59a1.69,1.69,0,0,1-1.81-1.67v-4.43a1.87,1.87,0,0,1,1.81-1.83l11.93-.51a1.66,1.66,0,0,1,1.76,1.66Z" transform="translate(2.3 5.06)"/><path class="cls-55" d="M351.21,268.51a1.8,1.8,0,0,1-1.71,1.78l-11.53.57a1.63,1.63,0,0,1-1.74-1.64v-4.35a1.84,1.84,0,0,1,1.75-1.8l11.53-.49a1.61,1.61,0,0,1,1.7,1.63Z" transform="translate(2.3 5.06)"/><path class="cls-56" d="M292,285.85a2,2,0,0,1-1.89,1.9l-12.76.79a1.76,1.76,0,0,1-1.94-1.7v-4.58a2,2,0,0,1,1.94-1.92l12.77-.7a1.73,1.73,0,0,1,1.89,1.69Z" transform="translate(2.3 5.06)"/><path class="cls-57" d="M312.63,284.61a1.93,1.93,0,0,1-1.83,1.87l-12.32.76a1.7,1.7,0,0,1-1.87-1.67v-4.5a2,2,0,0,1,1.88-1.88l12.32-.68a1.69,1.69,0,0,1,1.83,1.66Z" transform="translate(2.3 5.06)"/><path class="cls-58" d="M331.89,283.46a1.89,1.89,0,0,1-1.77,1.84L318.2,286a1.65,1.65,0,0,1-1.8-1.64V280a1.91,1.91,0,0,1,1.82-1.85l11.92-.65a1.63,1.63,0,0,1,1.76,1.63Z" transform="translate(2.3 5.06)"/><path class="cls-59" d="M351.17,282.3a1.85,1.85,0,0,1-1.71,1.81l-11.52.71a1.62,1.62,0,0,1-1.75-1.62l0-4.35A1.85,1.85,0,0,1,338,277l11.52-.63a1.58,1.58,0,0,1,1.7,1.61Z" transform="translate(2.3 5.06)"/><path class="cls-60" d="M292,300a2,2,0,0,1-1.89,1.93l-12.76.93a1.72,1.72,0,0,1-1.94-1.67v-4.57a2,2,0,0,1,1.94-1.95l12.76-.85A1.7,1.7,0,0,1,292,295.5Z" transform="translate(2.3 5.06)"/><path class="cls-61" d="M312.61,298.53a2,2,0,0,1-1.83,1.89l-12.32.9a1.67,1.67,0,0,1-1.87-1.64v-4.5a2,2,0,0,1,1.87-1.9l12.32-.82a1.64,1.64,0,0,1,1.82,1.63Z" transform="translate(2.3 5.06)"/><path class="cls-62" d="M331.86,297.15a1.91,1.91,0,0,1-1.77,1.85l-11.91.88a1.63,1.63,0,0,1-1.81-1.62v-4.42a1.92,1.92,0,0,1,1.81-1.87l11.92-.8a1.62,1.62,0,0,1,1.76,1.61Z" transform="translate(2.3 5.06)"/><path class="cls-63" d="M351.13,295.76a1.87,1.87,0,0,1-1.71,1.83l-11.51.84a1.59,1.59,0,0,1-1.75-1.59v-4.35a1.89,1.89,0,0,1,1.75-1.84l11.52-.76a1.56,1.56,0,0,1,1.71,1.58Z" transform="translate(2.3 5.06)"/><path class="cls-64" d="M292,313.82a2.06,2.06,0,0,1-1.9,1.95l-12.75,1.08a1.7,1.7,0,0,1-1.93-1.65v-4.57a2.06,2.06,0,0,1,1.94-2l12.75-1a1.68,1.68,0,0,1,1.89,1.64Z" transform="translate(2.3 5.06)"/><path class="cls-65" d="M312.58,312.1a2,2,0,0,1-1.82,1.91l-12.31,1.05a1.65,1.65,0,0,1-1.87-1.62V309a2,2,0,0,1,1.87-1.93l12.32-1a1.62,1.62,0,0,1,1.82,1.61Z" transform="translate(2.3 5.06)"/><path class="cls-66" d="M331.83,310.5a1.93,1.93,0,0,1-1.77,1.87l-11.91,1a1.6,1.6,0,0,1-1.8-1.59v-4.42a2,2,0,0,1,1.81-1.89l11.91-.93a1.59,1.59,0,0,1,1.76,1.59Z" transform="translate(2.3 5.06)"/><path class="cls-67" d="M292,328.63a2.08,2.08,0,0,1-1.89,2l-12.74,1.24a1.68,1.68,0,0,1-1.94-1.63v-4.56a2.12,2.12,0,0,1,1.94-2l12.75-1.15a1.66,1.66,0,0,1,1.89,1.61Z" transform="translate(2.3 5.06)"/><path class="cls-68" d="M312.56,326.65a2,2,0,0,1-1.83,1.94l-12.3,1.19a1.63,1.63,0,0,1-1.87-1.59V323.7a2.05,2.05,0,0,1,1.87-1.95l12.31-1.11a1.61,1.61,0,0,1,1.82,1.59Z" transform="translate(2.3 5.06)"/><path class="cls-69" d="M331.8,324.81a2,2,0,0,1-1.77,1.9l-11.9,1.16a1.59,1.59,0,0,1-1.81-1.58v-4.41a2,2,0,0,1,1.81-1.91l11.91-1.08a1.57,1.57,0,0,1,1.76,1.57Z" transform="translate(2.3 5.06)"/><path class="cls-70" d="M349.35,303l-11.52.9a2.14,2.14,0,0,0-1.69,2.12v4.49l0,9.21v4.49a1.6,1.6,0,0,0,1.68,1.7l11.5-1.12a2.12,2.12,0,0,0,1.77-2v-4.43l0-9.1v-4.43A1.82,1.82,0,0,0,349.35,303Z" transform="translate(2.3 5.06)"/></g><path class="cls-71" d="M292.73,271.3a2,2,0,0,1-1.9,1.89l-12.75.62a1.77,1.77,0,0,1-1.94-1.72v-4.58a2,2,0,0,1,1.93-1.9l12.76-.54a1.75,1.75,0,0,1,1.89,1.71Z" transform="translate(2.3 5.06)"/><path class="cls-72" d="M312.65,270.35a1.91,1.91,0,0,1-1.83,1.85l-12.33.61a1.73,1.73,0,0,1-1.87-1.7v-4.5a1.93,1.93,0,0,1,1.87-1.86l12.33-.53a1.71,1.71,0,0,1,1.83,1.69Z" transform="translate(2.3 5.06)"/><path class="cls-73" d="M332.59,269.4a1.86,1.86,0,0,1-1.77,1.81l-11.91.59a1.68,1.68,0,0,1-1.81-1.66v-4.43a1.87,1.87,0,0,1,1.81-1.83l11.91-.51A1.66,1.66,0,0,1,332.6,265Z" transform="translate(2.3 5.06)"/><path class="cls-74" d="M351.85,268.48a1.8,1.8,0,0,1-1.71,1.78l-11.51.57a1.63,1.63,0,0,1-1.74-1.64v-4.35a1.84,1.84,0,0,1,1.75-1.8l11.52-.49a1.62,1.62,0,0,1,1.7,1.63Z" transform="translate(2.3 5.06)"/><path class="cls-75" d="M292.71,285.81a2,2,0,0,1-1.89,1.9l-12.75.78a1.74,1.74,0,0,1-1.93-1.69v-4.58a2,2,0,0,1,1.94-1.92l12.75-.69a1.72,1.72,0,0,1,1.89,1.68Z" transform="translate(2.3 5.06)"/><path class="cls-76" d="M312.63,284.61a1.93,1.93,0,0,1-1.83,1.87l-12.32.76a1.7,1.7,0,0,1-1.87-1.67v-4.5a2,2,0,0,1,1.88-1.88l12.32-.68a1.69,1.69,0,0,1,1.83,1.66Z" transform="translate(2.3 5.06)"/><path class="cls-77" d="M332.55,283.42a1.88,1.88,0,0,1-1.76,1.83l-11.91.74a1.65,1.65,0,0,1-1.8-1.65v-4.42a1.91,1.91,0,0,1,1.81-1.85l11.9-.65a1.63,1.63,0,0,1,1.76,1.63Z" transform="translate(2.3 5.06)"/><path class="cls-78" d="M351.81,282.26a1.84,1.84,0,0,1-1.71,1.81l-11.5.7a1.61,1.61,0,0,1-1.75-1.61v-4.35a1.88,1.88,0,0,1,1.76-1.82l11.51-.63a1.59,1.59,0,0,1,1.7,1.61Z" transform="translate(2.3 5.06)"/><path class="cls-79" d="M292.7,300a2,2,0,0,1-1.89,1.92l-12.74.94a1.72,1.72,0,0,1-1.94-1.67v-4.57a2,2,0,0,1,1.93-1.95l12.75-.84a1.69,1.69,0,0,1,1.88,1.66Z" transform="translate(2.3 5.06)"/><path class="cls-80" d="M312.61,298.53a2,2,0,0,1-1.83,1.89l-12.32.9a1.67,1.67,0,0,1-1.87-1.64v-4.5a2,2,0,0,1,1.87-1.9l12.32-.82a1.64,1.64,0,0,1,1.82,1.63Z" transform="translate(2.3 5.06)"/><path class="cls-81" d="M332.52,297.1a1.92,1.92,0,0,1-1.76,1.86l-11.9.87a1.63,1.63,0,0,1-1.81-1.62v-4.42a1.93,1.93,0,0,1,1.81-1.87l11.9-.79a1.6,1.6,0,0,1,1.76,1.61Z" transform="translate(2.3 5.06)"/><path class="cls-82" d="M351.77,295.72a1.86,1.86,0,0,1-1.71,1.82l-11.5.84a1.58,1.58,0,0,1-1.74-1.59v-4.34a1.89,1.89,0,0,1,1.75-1.84l11.51-.77a1.57,1.57,0,0,1,1.7,1.59Z" transform="translate(2.3 5.06)"/><path class="cls-83" d="M292.69,313.76a2,2,0,0,1-1.89,1.95l-12.74,1.08a1.7,1.7,0,0,1-1.93-1.65v-4.57a2.07,2.07,0,0,1,1.94-2l12.73-1a1.67,1.67,0,0,1,1.89,1.64Z" transform="translate(2.3 5.06)"/><path class="cls-84" d="M312.58,312.1a2,2,0,0,1-1.82,1.91l-12.31,1.05a1.65,1.65,0,0,1-1.87-1.62V309a2,2,0,0,1,1.87-1.93l12.32-1a1.62,1.62,0,0,1,1.82,1.61Z" transform="translate(2.3 5.06)"/><path class="cls-85" d="M332.49,310.44a2,2,0,0,1-1.76,1.88l-11.9,1a1.61,1.61,0,0,1-1.8-1.6v-4.41a2,2,0,0,1,1.81-1.89l11.89-.93a1.58,1.58,0,0,1,1.76,1.59Z" transform="translate(2.3 5.06)"/><path class="cls-86" d="M292.67,328.56a2.07,2.07,0,0,1-1.89,2l-12.72,1.24a1.68,1.68,0,0,1-1.94-1.63v-4.56a2.08,2.08,0,0,1,1.93-2l12.73-1.15a1.65,1.65,0,0,1,1.89,1.61Z" transform="translate(2.3 5.06)"/><path class="cls-87" d="M312.56,326.65a2,2,0,0,1-1.83,1.94l-12.3,1.19a1.63,1.63,0,0,1-1.87-1.59V323.7a2.05,2.05,0,0,1,1.87-1.95l12.31-1.11a1.61,1.61,0,0,1,1.82,1.59Z" transform="translate(2.3 5.06)"/><path class="cls-88" d="M332.46,324.75a2,2,0,0,1-1.77,1.89l-11.88,1.16a1.59,1.59,0,0,1-1.81-1.57v-4.41a2,2,0,0,1,1.81-1.91l11.89-1.08a1.56,1.56,0,0,1,1.76,1.57Z" transform="translate(2.3 5.06)"/><path class="cls-89" d="M350,303l-11.5.9A2.15,2.15,0,0,0,336.8,306v4.48l0,9.21v4.48a1.64,1.64,0,0,0,1.71,1.71L350,324.77a2.13,2.13,0,0,0,1.75-2v-4.42l0-9.09v-4.43A1.79,1.79,0,0,0,350,303Z" transform="translate(2.3 5.06)"/><path class="cls-90" d="M245.65,143.67v49.58c0,5.33-3.32,10.27-9,14.3a39.6,39.6,0,0,1-4.45,2.74c-8.78,4.68-21.15,7.6-34.85,7.6s-26.07-2.92-34.85-7.6c-8.31-4.42-13.4-10.43-13.4-17V143.67Z" transform="translate(2.3 5.06)"/><path class="cls-91" d="M236.69,207.55a39.6,39.6,0,0,1-4.45,2.74c-8.78,4.68-21.15,7.6-34.85,7.6s-26.07-2.92-34.85-7.6c-8.31-4.42-13.4-10.43-13.4-17V167.64c6.71,3,16.36,8.85,18.14,18.32,2.78,14.81,23.13,19.82,43.37,16.48C219.57,201,228.9,203.28,236.69,207.55Z" transform="translate(2.3 5.06)"/><polygon class="cls-92" points="273.2 153.51 200.81 117.76 128.43 153.51 125.63 153.51 125.63 154.72 125.63 154.72 200.88 191.9 276.13 154.72 276.13 154.72 276.13 153.51 273.2 153.51"/><polygon class="cls-93" points="200.81 116.1 125.53 153.28 200.81 190.47 276.1 153.28 200.81 116.1"/><path class="cls-94" d="M273.36,199.85a1,1,0,0,1-1-1V150.11a2,2,0,0,0-1.9-2.14h-72a1,1,0,1,1,0-1.91h72a3.89,3.89,0,0,1,3.81,4.05v48.74A1,1,0,0,1,273.36,199.85Z" transform="translate(2.3 5.06)"/><path class="cls-95" d="M275.89,191l-.85-1.51a1.81,1.81,0,0,0-1.6-.92,1.78,1.78,0,0,0-1.56,1l-.72,1.57a2.59,2.59,0,0,0-.19,1.24V205.6c0,.28,1.11.51,2.63.51s2.62-.23,2.62-.51V192.3A2.6,2.6,0,0,0,275.89,191Z" transform="translate(2.3 5.06)"/></g></g></g></svg>